<mxfile host="app.diagrams.net" modified="2021-01-31T22:59:22.982Z" agent="5.0 (Windows NT 10.0; Win64; x64) AppleWebKit/537.36 (KHTML, like Gecko) Chrome/88.0.4324.96 Safari/537.36 Edg/88.0.705.56" etag="HgG8XfIvPhv9lsRNipOe" version="14.2.9" type="github">
  <diagram id="kgpKYQtTHZ0yAKxKKP6v" name="Page-1">
    <mxGraphModel dx="942" dy="1714" grid="1" gridSize="10" guides="1" tooltips="1" connect="1" arrows="1" fold="1" page="1" pageScale="1" pageWidth="850" pageHeight="1100" math="0" shadow="0">
      <root>
        <mxCell id="0" />
        <mxCell id="1" parent="0" />
        <mxCell id="RDqaGRUIBh91JvQvgev--11" value="" style="edgeStyle=orthogonalEdgeStyle;rounded=0;orthogonalLoop=1;jettySize=auto;html=1;" edge="1" parent="1" source="RDqaGRUIBh91JvQvgev--1" target="RDqaGRUIBh91JvQvgev--3">
          <mxGeometry relative="1" as="geometry" />
        </mxCell>
        <mxCell id="RDqaGRUIBh91JvQvgev--1" value="Start:&lt;br&gt;runs for each device in inventory" style="ellipse;whiteSpace=wrap;html=1;aspect=fixed;" vertex="1" parent="1">
          <mxGeometry x="40" y="80" width="80" height="80" as="geometry" />
        </mxCell>
        <mxCell id="RDqaGRUIBh91JvQvgev--12" value="" style="edgeStyle=orthogonalEdgeStyle;rounded=0;orthogonalLoop=1;jettySize=auto;html=1;" edge="1" parent="1" source="RDqaGRUIBh91JvQvgev--3" target="RDqaGRUIBh91JvQvgev--4">
          <mxGeometry relative="1" as="geometry" />
        </mxCell>
        <mxCell id="RDqaGRUIBh91JvQvgev--3" value="backup the entire device config" style="rounded=1;whiteSpace=wrap;html=1;" vertex="1" parent="1">
          <mxGeometry x="160" y="90" width="120" height="60" as="geometry" />
        </mxCell>
        <mxCell id="RDqaGRUIBh91JvQvgev--10" value="" style="edgeStyle=orthogonalEdgeStyle;rounded=0;orthogonalLoop=1;jettySize=auto;html=1;" edge="1" parent="1" source="RDqaGRUIBh91JvQvgev--4" target="RDqaGRUIBh91JvQvgev--8">
          <mxGeometry relative="1" as="geometry" />
        </mxCell>
        <mxCell id="RDqaGRUIBh91JvQvgev--4" value="grab facts that need to be audited from device&amp;nbsp;" style="rounded=1;whiteSpace=wrap;html=1;" vertex="1" parent="1">
          <mxGeometry x="320" y="90" width="120" height="60" as="geometry" />
        </mxCell>
        <mxCell id="RDqaGRUIBh91JvQvgev--5" value="list of audit facts" style="shape=document;whiteSpace=wrap;html=1;boundedLbl=1;" vertex="1" parent="1">
          <mxGeometry x="330" y="-30" width="100" height="70" as="geometry" />
        </mxCell>
        <mxCell id="RDqaGRUIBh91JvQvgev--6" value="" style="endArrow=none;dashed=1;html=1;" edge="1" parent="1" source="RDqaGRUIBh91JvQvgev--4" target="RDqaGRUIBh91JvQvgev--5">
          <mxGeometry width="50" height="50" relative="1" as="geometry">
            <mxPoint x="440" y="90" as="sourcePoint" />
            <mxPoint x="490" y="40" as="targetPoint" />
          </mxGeometry>
        </mxCell>
        <mxCell id="RDqaGRUIBh91JvQvgev--8" value="check for fact differences" style="rhombus;whiteSpace=wrap;html=1;" vertex="1" parent="1">
          <mxGeometry x="480" y="80" width="80" height="80" as="geometry" />
        </mxCell>
        <mxCell id="RDqaGRUIBh91JvQvgev--13" value="&lt;h1&gt;Device Audit Process&lt;/h1&gt;&lt;div&gt;Shows the process to audit a device to ensure it has standard configurations present.&amp;nbsp; If something is not configured&amp;nbsp;&lt;/div&gt;" style="text;html=1;strokeColor=none;fillColor=none;spacing=5;spacingTop=-20;whiteSpace=wrap;overflow=hidden;rounded=0;" vertex="1" parent="1">
          <mxGeometry x="60" y="-190" width="310" height="120" as="geometry" />
        </mxCell>
      </root>
    </mxGraphModel>
  </diagram>
</mxfile>
